<svg width="36" height="36" viewBox="0 0 36 36" fill="none" xmlns="http://www.w3.org/2000/svg">
<circle cx="18" cy="18" r="18" fill="#2F80ED"/>
<path d="M14.5947 12.9189H13.3785H12.6488C12.4055 13 11.919 13.2595 11.919 13.6487C11.919 14.1352 11.6758 14.1352 11.6758 15.1081C11.6758 16.0811 11.6758 15.5946 11.919 16.0811C12.1623 16.5676 11.919 16.5676 12.1623 16.8108C12.4055 17.0541 12.2796 17.0541 12.4055 17.7838C12.5314 18.5135 12.892 18.5135 13.1352 19C13.3785 19.4865 13.3785 19.2433 13.3785 19.7298C13.3785 20.2162 13.6217 19.973 14.1082 20.4595C14.5947 20.946 14.3515 20.7027 14.5947 21.1892C14.8379 21.6757 15.3244 21.6757 15.8109 22.1622C16.2974 22.6487 16.5406 23.1352 16.7839 23.3784C17.0271 23.6216 17.5136 23.6216 17.7569 23.8649C18.0001 24.1081 19.2163 24.8379 19.7028 24.8379C20.1893 24.8379 20.4325 25.0811 20.919 24.8379C21.4055 24.5946 21.4055 25.0811 22.1352 24.8379C22.865 24.5946 22.6217 24.8379 23.5947 24.3514L24.0812 24.1081C24.1623 23.946 24.3244 23.573 24.3244 23.3784C24.3244 23.1838 24.1623 22.973 24.0812 22.8919C24.0001 22.7298 23.7893 22.3568 23.5947 22.1622C23.3515 21.9189 23.1082 21.9189 23.1082 21.6757C23.1082 21.4811 22.7839 21.4325 22.6217 21.4325C22.4596 21.3514 22.0379 21.1892 21.6488 21.1892C21.1623 21.1892 20.919 21.1892 20.6758 21.4325C20.4812 21.6271 20.4325 21.8379 20.4325 21.9189C20.1082 21.9189 19.4109 21.8703 19.2163 21.6757C19.0217 21.4811 17.6758 20.946 17.0271 20.7027L16.0542 20.2162C15.8109 19.8919 15.3244 19.146 15.3244 18.7568C15.3244 18.2703 14.8379 18.0271 14.8379 17.7838C14.8379 17.5406 14.8379 17.5406 15.3244 17.0541C15.8109 16.5676 15.5677 16.3244 15.8109 16.0811C16.0055 15.8865 15.7298 15.1892 15.5677 14.8649L14.5947 12.9189Z" fill="white"/>
<path fill-rule="evenodd" clip-rule="evenodd" d="M15.9051 20.6084C17.6436 22.3469 19.2584 23.3159 20.4599 23.8544C21.5091 24.3246 22.7474 24.4421 23.7126 23.4769L23.9331 23.2556L21.2811 21.5681C20.7771 22.3031 19.8239 22.7344 18.8721 22.3331C18.1514 22.0286 17.1974 21.5081 16.3446 20.6554C15.4919 19.8026 14.9721 18.8486 14.6676 18.1279C14.2656 17.1761 14.6961 16.2229 15.4319 15.7189L13.7444 13.0669L13.5231 13.2874C12.5579 14.2526 12.1896 15.0044 12.6591 16.0536C13.1976 17.2551 14.1666 18.8699 15.9051 20.6084ZM19.8471 25.2231C18.4859 24.6134 16.7181 23.5424 14.8446 21.6689C12.9711 19.7961 11.9001 18.0276 11.2896 16.6664C10.4834 14.8664 11.2199 13.4704 12.4626 12.2269L12.6831 12.0056C12.8419 11.8467 13.0344 11.7255 13.2463 11.6509C13.4583 11.5764 13.6842 11.5504 13.9076 11.5748C14.1309 11.5993 14.3459 11.6737 14.5366 11.7923C14.7274 11.911 14.889 12.0711 15.0096 12.2606L17.1321 15.5981C17.1883 15.6866 17.2254 15.786 17.2408 15.8897C17.2563 15.9934 17.2498 16.0992 17.2218 16.2003C17.1938 16.3014 17.1449 16.3954 17.0783 16.4765C17.0117 16.5575 16.9289 16.6236 16.8351 16.6706L16.3604 16.9084C16.0364 17.0704 15.9704 17.3561 16.0491 17.5444C16.3034 18.1466 16.7286 18.9176 17.4051 19.5949C18.0824 20.2714 18.8534 20.6966 19.4556 20.9509C19.6439 21.0304 19.9296 20.9636 20.0916 20.6396L20.3294 20.1649C20.3763 20.071 20.4424 19.9881 20.5234 19.9214C20.6044 19.8548 20.6984 19.8058 20.7995 19.7778C20.9006 19.7497 21.0064 19.7431 21.1102 19.7585C21.2139 19.7739 21.3133 19.8109 21.4019 19.8671L24.7394 21.9904C24.9289 22.111 25.0889 22.2726 25.2076 22.4634C25.3263 22.6541 25.4007 22.8691 25.4251 23.0924C25.4496 23.3157 25.4236 23.5417 25.3491 23.7536C25.2745 23.9656 25.1533 24.158 24.9944 24.3169L24.7731 24.5374C23.5304 25.7809 21.6479 26.0301 19.8471 25.2231Z" fill="white"/>
</svg>
