<svg width="36" height="36" fill="none" xmlns="http://www.w3.org/2000/svg"><circle cx="18" cy="18" r="18" fill="url(#paint0_linear_81_5074)"/><circle cx="18" cy="18" r="18" fill="url(#paint1_linear_81_5074)"/><path fill-rule="evenodd" clip-rule="evenodd" d="M10.959 18.175c3.757-1.688 6.258-2.81 7.514-3.354 3.575-1.543 4.326-1.81 4.81-1.821.107 0 .343.022.504.155.129.112.161.256.183.367.021.111.043.344.021.522-.193 2.11-1.03 7.23-1.46 9.585-.182 1-.537 1.332-.88 1.366-.752.066-1.32-.511-2.04-1-1.138-.766-1.771-1.244-2.877-1.999-1.277-.866-.45-1.344.28-2.121.192-.2 3.488-3.31 3.553-3.588.01-.033.01-.166-.065-.233-.075-.066-.182-.044-.268-.022-.118.022-1.922 1.266-5.432 3.72-.515.367-.977.545-1.396.534-.461-.011-1.342-.267-2.007-.489-.805-.267-1.45-.41-1.396-.877.032-.245.354-.49.956-.745z" fill="#fff"/><defs><linearGradient id="paint0_linear_81_5074" x1="18" y1="0" x2="29.854" y2="36" gradientUnits="userSpaceOnUse"><stop stop-color="#58D063"/><stop offset="1" stop-color="#28B43E"/></linearGradient><linearGradient id="paint1_linear_81_5074" x1="17.985" y1="0" x2="17.985" y2="35.715" gradientUnits="userSpaceOnUse"><stop stop-color="#2AABEE"/><stop offset="1" stop-color="#229ED9"/></linearGradient></defs></svg>