<svg width="36" height="36" viewBox="0 0 36 36" fill="none" xmlns="http://www.w3.org/2000/svg">
<circle cx="18" cy="18" r="18" fill="url(#paint0_linear_81_5070)"/>
<path fill-rule="evenodd" clip-rule="evenodd" d="M12.6248 18C12.6248 16.7391 12.9987 15.5066 13.6992 14.4582C14.3997 13.4099 15.3953 12.5928 16.5602 12.1103C17.7251 11.6278 19.0069 11.5015 20.2435 11.7475C21.4802 11.9935 22.6161 12.6006 23.5076 13.4922C24.3992 14.3838 25.0063 15.5197 25.2523 16.7563C25.4983 17.9929 25.3721 19.2747 24.8896 20.4396C24.407 21.6045 23.5899 22.6001 22.5416 23.3006C21.4932 24.0011 20.2607 24.375 18.9998 24.375C17.7937 24.3771 16.612 24.0353 15.5933 23.3895C15.5027 23.3322 15.4009 23.295 15.2946 23.2803C15.1884 23.2657 15.0803 23.274 14.9776 23.3047L12.8176 23.949L13.6313 22.0462C13.6786 21.9355 13.6985 21.8149 13.6894 21.6948C13.6803 21.5747 13.6423 21.4586 13.5788 21.3562C12.9533 20.3487 12.6228 19.1859 12.6248 18V18ZM18.9998 10.125C14.6506 10.125 11.1248 13.6507 11.1248 18C11.1248 19.3785 11.4796 20.676 12.1036 21.8047L10.8098 24.8302C10.7538 24.9613 10.7363 25.1056 10.7594 25.2462C10.7824 25.3869 10.8451 25.5181 10.94 25.6244C11.0349 25.7307 11.1582 25.8078 11.2953 25.8466C11.4324 25.8854 11.5778 25.8843 11.7143 25.8435L15.0893 24.837C16.2796 25.5191 17.628 25.877 18.9998 25.875C23.3491 25.875 26.8748 22.3492 26.8748 18C26.8748 13.6507 23.3491 10.125 18.9998 10.125ZM20.7196 19.6365L19.7333 20.331C19.1899 20.0184 18.691 19.6342 18.2498 19.1887C17.7762 18.7158 17.3667 18.1827 17.0318 17.6032L17.6581 17.0715C17.7886 16.9608 17.8773 16.8088 17.9095 16.6407C17.9417 16.4726 17.9154 16.2986 17.8351 16.1475L17.0371 14.6475C16.984 14.5479 16.9091 14.4615 16.8179 14.3949C16.7268 14.3283 16.6218 14.2831 16.5108 14.2627C16.3998 14.2423 16.2856 14.2472 16.1767 14.2771C16.0678 14.3069 15.9671 14.361 15.8821 14.4352L15.6451 14.6415C15.0758 15.138 14.7391 15.954 15.0181 16.7805C15.467 18.0878 16.2098 19.2748 17.1893 20.25C18.5491 21.6097 19.9306 22.1452 20.7391 22.3537C21.3901 22.521 22.0058 22.2967 22.4401 21.9427L22.8833 21.5812C22.9768 21.505 23.0505 21.4074 23.0982 21.2967C23.1459 21.1859 23.1662 21.0653 23.1573 20.9451C23.1485 20.8248 23.1108 20.7085 23.0474 20.6059C22.9841 20.5033 22.8969 20.4175 22.7933 20.3557L21.5348 19.6057C21.4104 19.5315 21.2671 19.4949 21.1223 19.5003C20.9775 19.5058 20.8373 19.5531 20.7188 19.6365H20.7196Z" fill="white"/>
<defs>
<linearGradient id="paint0_linear_81_5070" x1="18" y1="3.53267e-07" x2="29.8537" y2="36" gradientUnits="userSpaceOnUse">
<stop stop-color="#58D063"/>
<stop offset="1" stop-color="#28B43E"/>
</linearGradient>
</defs>
</svg>
