<svg width="36" height="36" fill="none" xmlns="http://www.w3.org/2000/svg"><circle cx="18" cy="18" r="18" fill="url(#paint0_linear_81_5070)"/><path fill-rule="evenodd" clip-rule="evenodd" d="M12.625 18a6.375 6.375 0 112.968 5.39.751.751 0 00-.615-.085l-2.16.644.813-1.903a.75.75 0 00-.052-.69A6.343 6.343 0 0112.625 18zM19 10.125a7.875 7.875 0 00-6.896 11.68L10.81 24.83a.75.75 0 00.904 1.014l3.375-1.007A7.875 7.875 0 1019 10.125zm1.72 9.512l-.987.694a7.001 7.001 0 01-1.483-1.142 7.65 7.65 0 01-1.218-1.586l.626-.532a.75.75 0 00.177-.924l-.798-1.5a.75.75 0 00-1.155-.212l-.237.207c-.57.496-.906 1.312-.627 2.139a9.038 9.038 0 002.171 3.469c1.36 1.36 2.742 1.895 3.55 2.104.651.167 1.267-.057 1.701-.411l.443-.362a.75.75 0 00-.09-1.225l-1.258-.75a.75.75 0 00-.816.03z" fill="#fff"/><defs><linearGradient id="paint0_linear_81_5070" x1="18" y1="0" x2="29.854" y2="36" gradientUnits="userSpaceOnUse"><stop stop-color="#58D063"/><stop offset="1" stop-color="#28B43E"/></linearGradient></defs></svg>