<svg width="18" height="19" fill="none" xmlns="http://www.w3.org/2000/svg"><path d="M18 9.842c0-.64-.055-1.25-.149-1.842H9v3.66h5.068a4.531 4.531 0 01-1.88 2.905V17h3.023C16.982 15.304 18 12.804 18 9.842z" fill="#4285F4"/><path d="M9.044 19c2.433 0 4.469-.89 5.956-2.398l-2.9-2.471c-.81.593-1.84.955-3.056.955-2.35 0-4.341-1.738-5.055-4.086H1v2.546C2.48 16.776 5.521 19 9.044 19z" fill="#34A853"/><path d="M4 11.415A6.365 6.365 0 013.712 9.5c0-.67.106-1.313.288-1.915V5H.98A10.75 10.75 0 000 9.5c0 1.623.357 3.145.98 4.5L4 11.415z" fill="#FBBC05"/><path d="M9.005 3.913c1.323 0 2.504.503 3.439 1.483L15 2.58C13.453.98 11.427 0 9.005 0 5.5 0 2.472 2.225 1 5.454L3.975 8c.71-2.348 2.69-4.087 5.03-4.087z" fill="#EA4335"/></svg>