<svg width="24" height="24" fill="none" xmlns="http://www.w3.org/2000/svg"><path d="M7.46 3.892H4.864c-.325.108-.973.454-.973.973 0 .648-.325.648-.325 1.946 0 1.297 0 .648.325 1.297.324.649 0 .649.324.973.324.324.156.324.324 1.297.168.973.649.973.973 1.622.325.649.325.324.325.973s.324.324.973.973c.648.649.324.324.648.973.325.649.973.649 1.622 1.297.649.649.973 1.297 1.297 1.622.325.324.973.324 1.297.648.325.325 1.946 1.298 2.595 1.298.649 0 .973.324 1.622 0 .648-.325.648.324 1.621 0 .973-.325.649 0 1.946-.649l.649-.324c.108-.216.324-.714.324-.973 0-.26-.216-.54-.324-.649-.108-.216-.39-.713-.649-.973-.324-.324-.648-.324-.648-.649 0-.259-.433-.324-.649-.324-.216-.108-.778-.324-1.297-.324-.649 0-.973 0-1.298.324-.26.26-.324.54-.324.649-.432 0-1.362-.065-1.622-.324-.259-.26-2.054-.973-2.918-1.298l-1.298-.648c-.324-.433-.973-1.428-.973-1.946 0-.649-.648-.973-.648-1.298 0-.324 0-.324.648-.973.649-.648.325-.973.649-1.297.26-.26-.108-1.19-.324-1.622L7.459 3.892z" fill="#fff"/><path fill-rule="evenodd" clip-rule="evenodd" d="M9.207 14.145c2.318 2.317 4.471 3.61 6.073 4.328 1.399.627 3.05.783 4.337-.504l.294-.295-3.536-2.25c-.672.98-1.943 1.555-3.212 1.02-.961-.406-2.233-1.1-3.37-2.237s-1.83-2.409-2.236-3.37c-.536-1.269.038-2.54 1.019-3.212L6.326 4.09l-.295.294C4.744 5.67 4.253 6.673 4.879 8.071c.718 1.602 2.01 3.755 4.328 6.074zm5.256 6.152c-1.815-.813-4.172-2.24-6.67-4.739-2.498-2.496-3.926-4.854-4.74-6.67-1.075-2.4-.093-4.26 1.564-5.919l.294-.295a2 2 0 013.102.34l2.83 4.45a1 1 0 01-.396 1.43l-.633.317c-.432.216-.52.597-.415.848.339.803.906 1.831 1.808 2.734.903.902 1.931 1.47 2.734 1.808.251.106.632.017.848-.415l.317-.633a1 1 0 011.43-.397l4.45 2.831a2 2 0 01.34 3.102l-.295.294c-1.657 1.658-4.167 1.99-6.568.915z" fill="#fff"/></svg>