<svg width="48" height="48" fill="none" xmlns="http://www.w3.org/2000/svg"><circle cx="24" cy="24" r="24" fill="url(#paint0_linear_81_4522)"/><circle cx="24" cy="24" r="24" fill="url(#paint1_linear_81_4522)"/><path fill-rule="evenodd" clip-rule="evenodd" d="M14.3 23.9c5.1-2.25 8.495-3.746 10.2-4.471 4.85-2.059 5.87-2.414 6.526-2.429.146 0 .467.03.685.207.175.148.219.34.248.489a2.6 2.6 0 01.029.696c-.262 2.814-1.399 9.64-1.982 12.78-.247 1.332-.728 1.777-1.194 1.821-1.02.089-1.792-.681-2.768-1.333-1.545-1.022-2.404-1.658-3.905-2.665-1.734-1.155-.612-1.792.379-2.829.262-.266 4.735-4.413 4.822-4.783.015-.044.015-.222-.087-.31-.102-.09-.248-.06-.364-.03-.16.03-2.608 1.688-7.372 4.96-.7.49-1.326.726-1.894.711-.627-.015-1.822-.355-2.725-.651-1.092-.356-1.967-.548-1.894-1.17.044-.326.481-.652 1.297-.992z" fill="#fff"/><defs><linearGradient id="paint0_linear_81_4522" x1="24" y1="0" x2="39.805" y2="48" gradientUnits="userSpaceOnUse"><stop stop-color="#58D063"/><stop offset="1" stop-color="#28B43E"/></linearGradient><linearGradient id="paint1_linear_81_4522" x1="23.98" y1="0" x2="23.98" y2="47.62" gradientUnits="userSpaceOnUse"><stop stop-color="#2AABEE"/><stop offset="1" stop-color="#229ED9"/></linearGradient></defs></svg>