<svg width="49" height="48" fill="none" xmlns="http://www.w3.org/2000/svg"><ellipse cx="24.5" cy="24" rx="24.5" ry="24" fill="url(#paint0_linear_81_4514)"/><path fill-rule="evenodd" clip-rule="evenodd" d="M16.5 24a8.5 8.5 0 118.5 8.5 8.455 8.455 0 01-4.542-1.314 1 1 0 00-.821-.113l-2.88.859 1.085-2.537a1 1 0 00-.07-.92A8.457 8.457 0 0116.5 24zM25 13.5c-5.8 0-10.5 4.701-10.5 10.5 0 1.838.473 3.568 1.305 5.073l-1.725 4.034a1 1 0 001.206 1.351l4.5-1.342A10.457 10.457 0 0025 34.5c5.799 0 10.5-4.701 10.5-10.5S30.799 13.5 25 13.5zm2.293 12.682l-1.315.926A9.34 9.34 0 0124 25.585a10.205 10.205 0 01-1.624-2.114l.835-.709a1 1 0 00.236-1.232l-1.064-2a1 1 0 00-1.54-.283l-.316.275c-.76.662-1.208 1.75-.836 2.852A12.049 12.049 0 0022.586 27c1.813 1.813 3.655 2.527 4.733 2.805.868.223 1.689-.076 2.268-.548l.59-.482a1 1 0 00-.12-1.634l-1.677-1a1 1 0 00-1.088.041z" fill="#fff"/><defs><linearGradient id="paint0_linear_81_4514" x1="24.5" y1="0" x2="40.044" y2="48.19" gradientUnits="userSpaceOnUse"><stop stop-color="#58D063"/><stop offset="1" stop-color="#28B43E"/></linearGradient></defs></svg>