<svg width="36" height="36" fill="none" xmlns="http://www.w3.org/2000/svg"><circle cx="18" cy="18" r="18" fill="#2F80ED"/><path d="M14.595 12.919h-1.946c-.243.081-.73.34-.73.73 0 .486-.243.486-.243 1.46 0 .972 0 .486.243.972.243.487 0 .487.243.73s.118.243.243.973c.126.73.487.73.73 1.216.244.486.244.243.244.73 0 .486.243.243.73.73.486.486.242.243.486.73.243.486.73.486 1.216.972.486.487.73.973.973 1.216.243.244.73.244.973.487s1.46.973 1.946.973.73.243 1.216 0 .486.243 1.216 0 .487 0 1.46-.487l.486-.243c.081-.162.243-.535.243-.73 0-.194-.162-.405-.243-.486-.08-.162-.292-.535-.486-.73-.243-.243-.487-.243-.487-.486 0-.195-.324-.243-.486-.243-.162-.082-.584-.244-.973-.244-.487 0-.73 0-.973.244-.195.194-.243.405-.243.486-.325 0-1.022-.049-1.217-.243-.194-.195-1.54-.73-2.189-.973l-.973-.487c-.243-.324-.73-1.07-.73-1.46 0-.486-.486-.729-.486-.972s0-.243.486-.73c.487-.486.244-.73.487-.973.195-.194-.081-.892-.243-1.216l-.973-1.946z" fill="#fff"/><path fill-rule="evenodd" clip-rule="evenodd" d="M15.905 20.608c1.739 1.739 3.353 2.708 4.555 3.246 1.05.47 2.287.588 3.253-.377l.22-.221-2.652-1.688c-.504.735-1.457 1.166-2.409.765a7.985 7.985 0 01-2.527-1.678 7.982 7.982 0 01-1.677-2.527c-.402-.952.028-1.905.764-2.41l-1.688-2.651-.22.22c-.966.966-1.334 1.717-.865 2.767.539 1.201 1.508 2.816 3.246 4.554zm3.942 4.615c-1.361-.61-3.129-1.68-5.002-3.554-1.874-1.873-2.945-3.641-3.555-5.003-.807-1.8-.07-3.196 1.173-4.44l.22-.22a1.5 1.5 0 012.327.255l2.122 3.337a.75.75 0 01-.297 1.073l-.475.237c-.324.162-.39.448-.31.636a6.49 6.49 0 001.355 2.05 6.49 6.49 0 002.05 1.357c.189.08.475.013.637-.311l.237-.475a.749.749 0 011.073-.298l3.337 2.123a1.5 1.5 0 01.255 2.327l-.22.22c-1.244 1.244-3.126 1.493-4.927.686z" fill="#fff"/></svg>