<svg width="36" height="36" viewBox="0 0 36 36" fill="none" xmlns="http://www.w3.org/2000/svg">
<circle cx="18" cy="18" r="18" fill="url(#paint0_linear_81_5075)"/>
<circle cx="18" cy="18" r="18" fill="url(#paint1_linear_81_5075)"/>
<path fill-rule="evenodd" clip-rule="evenodd" d="M10.9586 18.1755C14.7159 16.4874 17.2172 15.3656 18.4732 14.8214C22.048 13.2777 22.7995 13.0111 23.2826 13C23.3899 13 23.6261 13.0222 23.7871 13.1555C23.916 13.2665 23.9482 13.4109 23.9696 13.522C23.9911 13.6331 24.0126 13.8663 23.9911 14.044C23.7979 16.1542 22.9605 21.2741 22.5311 23.6287C22.3486 24.6282 21.9944 24.9614 21.6508 24.9947C20.8994 25.0614 20.3304 24.4838 19.6111 23.9952C18.4732 23.2288 17.8398 22.7513 16.7341 21.996C15.4566 21.1298 16.2832 20.6522 17.0132 19.8748C17.2065 19.6748 20.5022 16.5651 20.5666 16.2874C20.5773 16.2541 20.5773 16.1208 20.5022 16.0542C20.427 15.9876 20.3197 16.0098 20.2338 16.032C20.1157 16.0542 18.3122 17.2981 14.8018 19.7526C14.2865 20.1191 13.8249 20.2968 13.4062 20.2857C12.9446 20.2746 12.0643 20.0191 11.3987 19.797C10.5936 19.5305 9.94945 19.3861 10.0031 18.9196C10.0353 18.6753 10.3574 18.4309 10.9586 18.1755Z" fill="white"/>
<defs>
<linearGradient id="paint0_linear_81_5075" x1="18" y1="3.53267e-07" x2="29.8537" y2="36" gradientUnits="userSpaceOnUse">
<stop stop-color="#58D063"/>
<stop offset="1" stop-color="#28B43E"/>
</linearGradient>
<linearGradient id="paint1_linear_81_5075" x1="17.985" y1="0" x2="17.985" y2="35.7152" gradientUnits="userSpaceOnUse">
<stop stop-color="#2AABEE"/>
<stop offset="1" stop-color="#229ED9"/>
</linearGradient>
</defs>
</svg>
